<svg width="120" height="40" viewBox="0 0 120 40" fill="none" xmlns="http://www.w3.org/2000/svg">
    <path d="M56.497 7.434C51.457 2.714 45.007 0 37.979 0c-6.982 0-13.39 2.676-18.417 7.34a.372.372 0 0 0-.085.115.42.42 0 0 0 .039.424l1.494 2.034c.116.156.324.18.461.052 4.512-4.176 10.253-6.673 16.508-6.673 6.301 0 12.08 2.535 16.604 6.763.141.133.349.109.465-.052l1.494-2.033a.41.41 0 0 0-.045-.536z" fill="#fff"/>
    <path d="M56.497 7.434C51.457 2.714 45.007 0 37.979 0c-6.982 0-13.39 2.676-18.417 7.34a.372.372 0 0 0-.085.115.42.42 0 0 0 .039.424l1.494 2.034c.116.156.324.18.461.052 4.512-4.176 10.253-6.673 16.508-6.673 6.301 0 12.08 2.535 16.604 6.763.141.133.349.109.465-.052l1.494-2.033a.41.41 0 0 0-.045-.536zM18.319 15.84h6.757l-9.041 22.493H9.04L0 15.841h6.757l5.757 15.744 5.805-15.744zM81.67 15.21c2.728 0 4.901.84 6.519 2.52 1.65 1.68 2.474 3.929 2.474 6.748v13.855h-6.138v-13.45c0-1.35-.349-2.4-1.047-3.15-.698-.749-1.681-1.124-2.95-1.124-1.396 0-2.49.435-3.283 1.305-.761.87-1.142 2.129-1.142 3.778v12.641h-6.138v-13.45c0-1.35-.349-2.4-1.047-3.15-.698-.749-1.681-1.124-2.95-1.124-1.364 0-2.458.435-3.283 1.305-.793.87-1.19 2.129-1.19 3.778v12.641h-6.138V15.841h6.139v2.384c1.427-2.01 3.631-3.014 6.613-3.014 2.919 0 5.076 1.08 6.471 3.239 1.587-2.16 3.95-3.24 7.09-3.24zM116.86 20.25v-4.41H120v22.493h-3.14v-4.408c-2.189 3.299-5.393 4.948-9.612 4.948-3.394 0-6.296-1.14-8.707-3.419-2.38-2.28-3.569-5.068-3.569-8.367 0-3.299 1.19-6.088 3.569-8.367 2.411-2.28 5.313-3.42 8.707-3.42 4.219 0 7.423 1.65 9.612 4.95zm-16.035 13.18c1.808 1.71 4.028 2.564 6.661 2.564s4.853-.855 6.661-2.564c1.809-1.77 2.713-3.884 2.713-6.343 0-2.49-.904-4.588-2.713-6.298-1.808-1.74-4.028-2.61-6.661-2.61s-4.853.87-6.661 2.61c-1.809 1.71-2.713 3.809-2.713 6.298 0 2.46.904 4.573 2.713 6.343zM47.86 35.467c-2.46 2.27-5.464 3.406-9.01 3.406-3.547 0-6.55-1.135-9.01-3.406-2.429-2.3-3.643-5.109-3.643-8.425 0-3.316 1.214-6.11 3.643-8.38 2.46-2.3 5.463-3.451 9.01-3.451 3.546 0 6.55 1.15 9.01 3.45 2.46 2.271 3.69 5.065 3.69 8.38 0 3.317-1.23 6.126-3.69 8.426zM34.2 31.479c1.247 1.165 2.796 1.747 4.65 1.747 1.852 0 3.402-.582 4.648-1.747 1.246-1.166 1.87-2.645 1.87-4.437 0-1.793-.624-3.272-1.87-4.437-1.246-1.165-2.796-1.747-4.649-1.747-1.853 0-3.402.582-4.648 1.747-1.214 1.165-1.822 2.644-1.822 4.437 0 1.792.608 3.271 1.822 4.436z" fill="#fff"/>
</svg>
