<svg width="136" height="40" viewBox="0 0 136 40" fill="none" xmlns="http://www.w3.org/2000/svg">
    <g clip-path="url(#r1xryiuata)">
        <path d="M130.5 0H5.5a5 5 0 0 0-5 5v30a5 5 0 0 0 5 5h125a5 5 0 0 0 5-5V5a5 5 0 0 0-5-5z" fill="#000"/>
        <path d="M130.5.8a4.202 4.202 0 0 1 4.2 4.2v30a4.202 4.202 0 0 1-4.2 4.2H5.5A4.205 4.205 0 0 1 1.3 35V5A4.205 4.205 0 0 1 5.5.8h125zm0-.8H5.5a5.015 5.015 0 0 0-5 5v30a5.015 5.015 0 0 0 5 5h125a5.014 5.014 0 0 0 5-5V5a5.015 5.015 0 0 0-5-5z" fill="#A6A6A6"/>
        <path d="M47.918 10.243a2.705 2.705 0 0 1-.745 2.003 2.909 2.909 0 0 1-2.204.887A3.091 3.091 0 0 1 41.852 10a3.089 3.089 0 0 1 3.117-3.135c.423 0 .843.085 1.231.252.362.146.683.376.939.67l-.527.528a2.026 2.026 0 0 0-1.643-.712A2.32 2.32 0 0 0 42.639 10a2.359 2.359 0 0 0 4.006 1.726c.308-.332.486-.763.503-1.215h-2.179v-.72h2.907c.028.148.042.3.042.452zM52.528 7.737h-2.733v1.902h2.464v.721h-2.464v1.902h2.733V13h-3.503V7h3.503v.737zM55.779 13h-.772V7.737h-1.676V7h4.123v.737H55.78V13zM60.438 13V7h.77v6h-.77zM64.628 13h-.771V7.737H62.18V7h4.123v.737h-1.676V13zM74.11 12.224a3.116 3.116 0 0 1-4.4 0A3.068 3.068 0 0 1 68.826 10a3.068 3.068 0 0 1 .884-2.225 3.104 3.104 0 0 1 4.395.004 3.067 3.067 0 0 1 .888 2.22 3.072 3.072 0 0 1-.884 2.225zm-3.83-.502a2.307 2.307 0 0 0 3.259 0A2.35 2.35 0 0 0 74.206 10a2.349 2.349 0 0 0-.667-1.723 2.307 2.307 0 0 0-3.26 0A2.352 2.352 0 0 0 69.613 10a2.352 2.352 0 0 0 .666 1.722zM76.075 13V7h.938l2.916 4.667h.034l-.033-1.156V7h.771v6h-.805l-3.05-4.894h-.034l.034 1.156V13h-.771z" fill="#fff"/>
        <path d="M47.918 10.243a2.705 2.705 0 0 1-.745 2.003 2.909 2.909 0 0 1-2.204.887A3.091 3.091 0 0 1 41.852 10a3.089 3.089 0 0 1 3.117-3.135c.423 0 .843.085 1.231.252.362.146.683.376.939.67l-.527.528a2.026 2.026 0 0 0-1.643-.712A2.32 2.32 0 0 0 42.639 10a2.359 2.359 0 0 0 4.006 1.726c.308-.332.486-.763.503-1.215h-2.179v-.72h2.907c.028.148.042.3.042.452zM52.528 7.737h-2.733v1.902h2.464v.721h-2.464v1.902h2.733V13h-3.503V7h3.503v.737zM55.779 13h-.772V7.737h-1.676V7h4.123v.737H55.78V13zM60.438 13V7h.77v6h-.77zM64.628 13h-.771V7.737H62.18V7h4.123v.737h-1.676V13zM74.11 12.224a3.116 3.116 0 0 1-4.4 0A3.068 3.068 0 0 1 68.826 10a3.068 3.068 0 0 1 .884-2.225 3.104 3.104 0 0 1 4.395.004 3.067 3.067 0 0 1 .888 2.22 3.072 3.072 0 0 1-.884 2.225zm-3.83-.502a2.307 2.307 0 0 0 3.259 0A2.35 2.35 0 0 0 74.206 10a2.349 2.349 0 0 0-.667-1.723 2.307 2.307 0 0 0-3.26 0A2.352 2.352 0 0 0 69.613 10a2.352 2.352 0 0 0 .666 1.722zM76.075 13V7h.938l2.916 4.667h.034l-.033-1.156V7h.771v6h-.805l-3.05-4.894h-.034l.034 1.156V13h-.771z" stroke="#fff" stroke-width=".2" stroke-miterlimit="10"/>
        <path d="M68.635 21.752a4.253 4.253 0 1 0 4.27 4.253 4.194 4.194 0 0 0-4.27-4.253zm0 6.83a2.584 2.584 0 1 1 2.4-2.577 2.46 2.46 0 0 1-2.4 2.578zm-9.313-6.83a4.254 4.254 0 1 0 4.27 4.253 4.194 4.194 0 0 0-4.27-4.253zm0 6.83a2.584 2.584 0 1 1 2.4-2.577 2.46 2.46 0 0 1-2.4 2.578zm-11.079-5.525v1.804h4.318a3.766 3.766 0 0 1-.983 2.272 4.42 4.42 0 0 1-3.335 1.32 4.801 4.801 0 0 1 0-9.6 4.602 4.602 0 0 1 3.255 1.288l1.272-1.273a6.295 6.295 0 0 0-4.527-1.82 6.606 6.606 0 1 0 0 13.21 6.038 6.038 0 0 0 4.608-1.852 5.962 5.962 0 0 0 1.563-4.221 5.875 5.875 0 0 0-.097-1.128h-6.074zm45.309 1.402a3.953 3.953 0 0 0-3.642-2.707 4.043 4.043 0 0 0-4.01 4.253 4.163 4.163 0 0 0 4.22 4.253 4.23 4.23 0 0 0 3.544-1.885l-1.45-.966a2.428 2.428 0 0 1-2.094 1.176 2.164 2.164 0 0 1-2.062-1.29l5.687-2.351-.194-.483zm-5.8 1.417a2.331 2.331 0 0 1 2.223-2.48 1.646 1.646 0 0 1 1.579.901l-3.802 1.58zM83.128 30h1.869V17.5h-1.869V30zm-3.061-7.298h-.064a2.948 2.948 0 0 0-2.24-.95 4.257 4.257 0 0 0 0 8.506 2.899 2.899 0 0 0 2.24-.966h.064v.612c0 1.627-.87 2.497-2.272 2.497a2.353 2.353 0 0 1-2.142-1.515l-1.627.677a4.054 4.054 0 0 0 3.77 2.513c2.19 0 4.043-1.288 4.043-4.43V22.01h-1.772v.692zm-2.143 5.88a2.587 2.587 0 0 1 0-5.155 2.395 2.395 0 0 1 2.272 2.594 2.377 2.377 0 0 1-2.272 2.562zM102.305 17.5h-4.47v12.502H99.7v-4.737h2.605a3.886 3.886 0 0 0 4.102-3.883 3.887 3.887 0 0 0-4.102-3.882zm.049 6.025H99.7V19.24h2.654a2.138 2.138 0 0 1 2.02 1.312 2.152 2.152 0 0 1 0 1.661 2.149 2.149 0 0 1-2.02 1.312zm11.531-1.795a3.501 3.501 0 0 0-3.329 1.914l1.657.691a1.77 1.77 0 0 1 1.704-.916 1.797 1.797 0 0 1 1.963 1.608v.129a4.133 4.133 0 0 0-1.947-.483c-1.785 0-3.602.981-3.602 2.815a2.875 2.875 0 0 0 .97 2.032 2.88 2.88 0 0 0 2.134.718 2.632 2.632 0 0 0 2.38-1.222h.065v.965h1.801v-4.793c0-2.22-1.657-3.458-3.796-3.458zm-.225 6.851c-.611 0-1.464-.305-1.464-1.061 0-.965 1.062-1.335 1.979-1.335a3.327 3.327 0 0 1 1.705.418 2.26 2.26 0 0 1-2.22 1.978zm10.583-6.578-2.139 5.42h-.065l-2.219-5.42h-2.01l3.329 7.576-1.898 4.213h1.946l5.131-11.789h-2.075zM107.436 30h1.865V17.5h-1.865V30z" fill="#fff"/>
        <path d="M10.935 7.537a2.002 2.002 0 0 0-.463 1.405v22.116c-.03.51.135 1.013.463 1.405l.074.072L23.4 20.147v-.293l-12.39-12.39-.074.073z" fill="url(#mlvryl7ohb)"/>
        <path d="m27.528 24.279-4.13-4.132v-.292l4.13-4.13.094.053 4.893 2.78c1.397.794 1.397 2.093 0 2.887l-4.893 2.78-.094.054z" fill="url(#cfqriurdvc)"/>
        <path d="M27.622 24.224 23.398 20 10.935 32.463a1.627 1.627 0 0 0 2.079.061l14.608-8.3z" fill="url(#nfd1n1sp2d)"/>
        <path d="m27.622 15.777-14.608-8.3a1.627 1.627 0 0 0-2.079.06l12.463 12.464 4.224-4.224z" fill="url(#72l0oxbo6e)"/>
        <path opacity=".2" d="m27.529 24.13-14.515 8.248a1.666 1.666 0 0 1-2.004.01l-.075.075.074.072h.001a1.666 1.666 0 0 0 2.004-.01l14.608-8.301-.093-.093z" fill="#000"/>
        <path opacity=".12" d="M10.935 32.317a2.002 2.002 0 0 1-.463-1.405v.146c-.03.51.135 1.013.463 1.405l.075-.074-.075-.072zM32.515 21.297l-4.986 2.834.093.093 4.893-2.78A1.754 1.754 0 0 0 33.563 20a1.863 1.863 0 0 1-1.048 1.297z" fill="#000"/>
        <path opacity=".25" d="m13.014 7.623 19.5 11.08a1.863 1.863 0 0 1 1.05 1.298 1.754 1.754 0 0 0-1.05-1.444l-19.5-11.08c-1.398-.794-2.541-.134-2.541 1.467v.146c0-1.601 1.143-2.26 2.54-1.467z" fill="#fff"/>
    </g>
    <defs>
        <linearGradient id="mlvryl7ohb" x1="22.299" y1="8.709" x2="5.517" y2="25.492" gradientUnits="userSpaceOnUse">
            <stop stop-color="#00A0FF"/>
            <stop offset=".007" stop-color="#00A1FF"/>
            <stop offset=".26" stop-color="#00BEFF"/>
            <stop offset=".512" stop-color="#00D2FF"/>
            <stop offset=".76" stop-color="#00DFFF"/>
            <stop offset="1" stop-color="#00E3FF"/>
        </linearGradient>
        <linearGradient id="cfqriurdvc" x1="34.334" y1="20.002" x2="10.137" y2="20.002" gradientUnits="userSpaceOnUse">
            <stop stop-color="#FFE000"/>
            <stop offset=".409" stop-color="#FFBD00"/>
            <stop offset=".775" stop-color="orange"/>
            <stop offset="1" stop-color="#FF9C00"/>
        </linearGradient>
        <linearGradient id="nfd1n1sp2d" x1="25.327" y1="22.295" x2="2.569" y2="45.053" gradientUnits="userSpaceOnUse">
            <stop stop-color="#FF3A44"/>
            <stop offset="1" stop-color="#C31162"/>
        </linearGradient>
        <linearGradient id="72l0oxbo6e" x1="7.797" y1=".176" x2="17.96" y2="10.338" gradientUnits="userSpaceOnUse">
            <stop stop-color="#32A071"/>
            <stop offset=".069" stop-color="#2DA771"/>
            <stop offset=".476" stop-color="#15CF74"/>
            <stop offset=".801" stop-color="#06E775"/>
            <stop offset="1" stop-color="#00F076"/>
        </linearGradient>
        <clipPath id="r1xryiuata">
            <path fill="#fff" transform="translate(.5)" d="M0 0h135v40H0z"/>
        </clipPath>
    </defs>
</svg>
