<svg width="136" height="40" viewBox="0 0 136 40" fill="none" xmlns="http://www.w3.org/2000/svg">
    <g clip-path="url(#lrxmw8wvba)">
        <path fill-rule="evenodd" clip-rule="evenodd" d="M11.257 0h113.492c.406 0 .818 0 1.223.002.281.001.567.006.85.01.064 0 .127.002.19.003.757.007 1.511.066 2.257.176a8.324 8.324 0 0 1 2.152.627c1.357.618 2.462 1.597 3.158 2.8.34.6.576 1.241.698 1.903.126.662.196 1.331.21 2.002.004.307.004.615.004.921.009.363.009.726.009 1.092v20.929c0 .369 0 .73-.009 1.094 0 .31 0 .61-.004.921-.014.672-.084 1.34-.21 2.002a6.076 6.076 0 0 1-.698 1.905A6.5 6.5 0 0 1 133.246 38a7.102 7.102 0 0 1-1.825 1.179 8.367 8.367 0 0 1-2.152.63c-.746.11-1.501.169-2.257.177-.343.007-.696.011-1.04.011-.405.002-.817.002-1.223.002H11.257c-.414 0-.823 0-1.235-.002-.346 0-.688-.004-1.037-.01a17.062 17.062 0 0 1-2.26-.178 8.251 8.251 0 0 1-2.145-.63A7.109 7.109 0 0 1 2.754 38a6.305 6.305 0 0 1-1.33-1.614 6.08 6.08 0 0 1-.705-1.905 11.559 11.559 0 0 1-.202-2.002c-.007-.212-.01-.42-.013-.629 0-.097-.002-.194-.004-.292V8.444l.004-.295c.003-.208.006-.417.013-.626.01-.67.077-1.34.202-2.002a6.093 6.093 0 0 1 .705-1.903c.342-.6.791-1.147 1.33-1.62A7.294 7.294 0 0 1 4.58.817 8.208 8.208 0 0 1 6.724.191a16.772 16.772 0 0 1 2.477-.18A92.682 92.682 0 0 1 11.257 0zM8.908 39.117c.342.007.678.011 1.022.011l114.92.002 1.226-.002c.336 0 .683-.004 1.014-.01a15.978 15.978 0 0 0 2.112-.164 7.247 7.247 0 0 0 1.885-.55 6.148 6.148 0 0 0 1.582-1.023 5.584 5.584 0 0 0 1.147-1.385c.299-.526.505-1.09.611-1.67a11.45 11.45 0 0 0 .193-1.855c.004-.306.004-.604.004-.93.009-.357.009-.712.009-1.075V9.533c0-.36 0-.717-.009-1.092 0-.303 0-.607-.003-.89a11.529 11.529 0 0 0-.197-1.888 5.307 5.307 0 0 0-.604-1.65c-.602-1.038-1.557-1.885-2.73-2.42a7.329 7.329 0 0 0-1.888-.548c-.694-.1-1.396-.155-2.1-.162L126.07.87H9.93L8.91.882c-.71.008-1.418.063-2.119.164-.65.098-1.28.281-1.868.544-.586.266-1.12.61-1.585 1.023-.465.408-.852.88-1.147 1.398a5.307 5.307 0 0 0-.614 1.663 10.99 10.99 0 0 0-.187 1.872c-.007.203-.017.895-.017.895v23.105s.01.703.017.914c.009.628.071 1.255.188 1.875.107.577.314 1.136.613 1.657.296.519.686.99 1.154 1.397.46.412.994.755 1.578 1.017.59.264 1.221.449 1.873.548.698.1 1.404.155 2.112.163z" fill="#A6A6A6"/>
        <path d="M9.93 39.127c-.344 0-.68-.004-1.022-.01a16.153 16.153 0 0 1-2.112-.164 7.267 7.267 0 0 1-1.873-.548 6.137 6.137 0 0 1-1.578-1.017 5.41 5.41 0 0 1-1.154-1.396 5.276 5.276 0 0 1-.613-1.658c-.117-.62-.18-1.247-.188-1.875-.008-.211-.017-.914-.017-.914V8.44s.01-.691.017-.895a10.99 10.99 0 0 1 .187-1.872c.108-.579.315-1.14.614-1.663.295-.517.682-.99 1.147-1.398.465-.412 1-.757 1.585-1.023a7.193 7.193 0 0 1 1.868-.544C7.492.944 8.201.89 8.911.881L9.93.87H126.07l1.032.013c.704.007 1.406.062 2.1.162a7.328 7.328 0 0 1 1.888.548c1.173.535 2.128 1.382 2.73 2.42.294.52.498 1.077.604 1.65.118.624.183 1.255.197 1.888.003.283.003.587.003.89.009.375.009.732.009 1.092v20.933c0 .363 0 .718-.009 1.076 0 .325 0 .623-.004.93a11.336 11.336 0 0 1-.193 1.853 5.302 5.302 0 0 1-.611 1.67c-.298.513-.685.981-1.147 1.387-.462.413-.996.759-1.582 1.022a7.236 7.236 0 0 1-1.885.55 15.96 15.96 0 0 1-2.112.163c-.331.007-.678.011-1.014.011l-1.226.002-114.92-.002z" fill="#000"/>
        <path d="M33.297 20.3a4.95 4.95 0 0 1 2.357-4.152 5.067 5.067 0 0 0-3.991-2.157c-1.68-.177-3.308 1.004-4.163 1.004-.872 0-2.19-.987-3.609-.958a5.315 5.315 0 0 0-4.473 2.728c-1.934 3.349-.491 8.27 1.362 10.976.926 1.326 2.01 2.806 3.427 2.753 1.387-.057 1.905-.884 3.58-.884 1.658 0 2.144.884 3.59.851 1.489-.024 2.427-1.331 3.321-2.669a10.963 10.963 0 0 0 1.519-3.093 4.781 4.781 0 0 1-2.92-4.399zM30.565 12.211a4.872 4.872 0 0 0 1.114-3.49 4.957 4.957 0 0 0-3.207 1.66 4.635 4.635 0 0 0-1.144 3.36 4.099 4.099 0 0 0 3.237-1.53zM50.83 27.14h-4.733l-1.137 3.356h-2.005l4.483-12.418h2.084l4.483 12.418h-2.04L50.83 27.14zm-4.243-1.55h3.752l-1.85-5.446h-.051l-1.851 5.447zM63.688 25.97c0 2.813-1.506 4.62-3.779 4.62a3.069 3.069 0 0 1-2.848-1.583h-.044v4.484H55.16V21.442h1.799v1.506h.034a3.21 3.21 0 0 1 2.883-1.6c2.298 0 3.813 1.816 3.813 4.622zm-1.91 0c0-1.833-.948-3.038-2.393-3.038-1.42 0-2.375 1.23-2.375 3.038 0 1.824.955 3.046 2.375 3.046 1.445 0 2.392-1.197 2.392-3.046zM73.652 25.97c0 2.813-1.505 4.62-3.778 4.62a3.069 3.069 0 0 1-2.849-1.583h-.043v4.484h-1.858V21.442h1.799v1.506h.034a3.21 3.21 0 0 1 2.883-1.6c2.298 0 3.812 1.816 3.812 4.622zm-1.91 0c0-1.833-.947-3.038-2.392-3.038-1.42 0-2.375 1.23-2.375 3.038 0 1.824.955 3.046 2.375 3.046 1.445 0 2.392-1.197 2.392-3.046zM80.238 27.036c.138 1.232 1.334 2.04 2.969 2.04 1.566 0 2.693-.808 2.693-1.919 0-.964-.68-1.54-2.289-1.936l-1.609-.388c-2.28-.55-3.339-1.617-3.339-3.348 0-2.142 1.867-3.614 4.519-3.614 2.624 0 4.422 1.472 4.483 3.614h-1.876c-.112-1.239-1.137-1.987-2.634-1.987-1.497 0-2.521.757-2.521 1.858 0 .878.654 1.395 2.255 1.79l1.368.336c2.548.603 3.606 1.626 3.606 3.443 0 2.323-1.85 3.778-4.794 3.778-2.754 0-4.613-1.42-4.733-3.667h1.902zM91.874 19.3v2.142h1.722v1.472h-1.722v4.991c0 .776.345 1.137 1.102 1.137.204-.004.408-.018.61-.043v1.463c-.34.064-.685.092-1.031.086-1.833 0-2.548-.689-2.548-2.444v-5.19H88.69v-1.472h1.317V19.3h1.867zM94.593 25.97c0-2.849 1.677-4.639 4.294-4.639 2.625 0 4.295 1.79 4.295 4.639 0 2.856-1.661 4.639-4.295 4.639-2.633 0-4.294-1.783-4.294-4.64zm6.695 0c0-1.954-.895-3.108-2.401-3.108-1.506 0-2.4 1.163-2.4 3.108 0 1.962.894 3.106 2.4 3.106 1.506 0 2.401-1.144 2.401-3.106zM104.714 21.442h1.772v1.541h.043a2.159 2.159 0 0 1 2.178-1.635c.214-.001.428.022.637.069v1.738a2.604 2.604 0 0 0-.835-.112 1.875 1.875 0 0 0-1.937 2.083v5.37h-1.858v-9.054zM117.912 27.837c-.25 1.643-1.85 2.771-3.898 2.771-2.634 0-4.269-1.764-4.269-4.595 0-2.84 1.644-4.682 4.191-4.682 2.504 0 4.08 1.72 4.08 4.466v.637h-6.395v.112a2.37 2.37 0 0 0 .122.985 2.354 2.354 0 0 0 2.314 1.58 2.046 2.046 0 0 0 2.09-1.274h1.765zm-6.282-2.702h4.526a2.166 2.166 0 0 0-.608-1.634 2.177 2.177 0 0 0-1.612-.664 2.293 2.293 0 0 0-2.306 2.298zM46.355 8.732a2.64 2.64 0 0 1 2.807 2.964c0 1.907-1.03 3.002-2.807 3.002h-2.156V8.732h2.156zm-1.229 5.123h1.125a1.876 1.876 0 0 0 1.968-2.146 1.882 1.882 0 0 0-1.968-2.134h-1.125v4.28zM50.209 12.445a2.132 2.132 0 1 1 4.247 0 2.135 2.135 0 1 1-4.247 0zm3.333 0c0-.976-.439-1.547-1.208-1.547-.773 0-1.207.57-1.207 1.547 0 .984.434 1.55 1.207 1.55.77 0 1.208-.57 1.208-1.55zM60.102 14.698h-.922l-.931-3.316h-.07l-.927 3.316h-.913l-1.241-4.503h.901l.807 3.436h.066l.926-3.436h.852l.926 3.436h.07l.803-3.436h.889l-1.236 4.503zM62.382 10.195h.855v.716h.067a1.348 1.348 0 0 1 1.343-.803 1.464 1.464 0 0 1 1.559 1.675v2.915h-.889v-2.692c0-.723-.314-1.083-.971-1.083a1.03 1.03 0 0 0-1.076 1.141v2.634h-.888v-4.503zM67.622 8.438h.889v6.26h-.889v-6.26zM69.746 12.445a2.134 2.134 0 1 1 4.248 0 2.133 2.133 0 1 1-4.248 0zm3.333 0c0-.976-.438-1.547-1.208-1.547-.772 0-1.207.57-1.207 1.547 0 .984.435 1.55 1.207 1.55.77 0 1.208-.57 1.208-1.55zM74.93 13.425c0-.81.603-1.278 1.674-1.344l1.22-.07v-.39c0-.475-.315-.744-.922-.744-.496 0-.84.183-.939.5h-.86c.09-.773.818-1.269 1.84-1.269 1.129 0 1.766.562 1.766 1.514v3.076h-.856v-.633h-.07a1.515 1.515 0 0 1-1.353.707 1.36 1.36 0 0 1-1.5-1.347zm2.894-.385v-.376l-1.1.07c-.62.041-.901.252-.901.65 0 .405.351.64.835.64a1.06 1.06 0 0 0 1.166-.984zM79.876 12.445c0-1.423.732-2.324 1.87-2.324a1.484 1.484 0 0 1 1.38.79h.067V8.438h.889v6.26h-.852v-.711h-.07a1.563 1.563 0 0 1-1.414.785c-1.146 0-1.87-.9-1.87-2.327zm.918 0c0 .955.45 1.53 1.204 1.53.749 0 1.212-.583 1.212-1.526 0-.939-.468-1.53-1.212-1.53-.749 0-1.204.579-1.204 1.526zM87.758 12.445a2.132 2.132 0 1 1 4.247 0 2.135 2.135 0 1 1-4.247 0zm3.333 0c0-.976-.438-1.547-1.208-1.547-.772 0-1.207.57-1.207 1.547 0 .984.435 1.55 1.207 1.55.77 0 1.208-.57 1.208-1.55zM93.198 10.195h.855v.716h.067a1.348 1.348 0 0 1 1.343-.803 1.464 1.464 0 0 1 1.559 1.675v2.915h-.889v-2.692c0-.723-.314-1.083-.971-1.083a1.03 1.03 0 0 0-1.076 1.141v2.634h-.888v-4.503zM102.043 9.074v1.142h.976v.748h-.976v2.316c0 .472.195.678.637.678.113 0 .227-.007.339-.02v.74c-.16.028-.321.043-.483.045-.989 0-1.382-.348-1.382-1.216v-2.543h-.715v-.748h.715V9.074h.889zM104.233 8.438h.881v2.481h.07a1.382 1.382 0 0 1 1.373-.807 1.48 1.48 0 0 1 1.495 1.034c.066.209.085.429.056.645v2.907h-.89V12.01c0-.719-.335-1.083-.963-1.083a1.051 1.051 0 0 0-1.133 1.141v2.63h-.889v-6.26zM113.29 13.482a1.832 1.832 0 0 1-1.952 1.303 2.048 2.048 0 0 1-2.01-1.447 2.065 2.065 0 0 1-.07-.877 2.077 2.077 0 0 1 2.076-2.353c1.253 0 2.009.856 2.009 2.27v.31h-3.179v.05a1.185 1.185 0 0 0 1.199 1.29 1.077 1.077 0 0 0 1.071-.546h.856zm-3.126-1.45h2.274a1.089 1.089 0 0 0-.666-1.084 1.087 1.087 0 0 0-.442-.083 1.15 1.15 0 0 0-1.166 1.166z" fill="#fff"/>
    </g>
    <defs>
        <clipPath id="lrxmw8wvba">
            <path fill="#fff" transform="translate(.5)" d="M0 0h135v40H0z"/>
        </clipPath>
    </defs>
</svg>
