<svg width="32" height="32" viewBox="0 0 32 32" fill="none" xmlns="http://www.w3.org/2000/svg">
    <g opacity=".6" fill-rule="evenodd" clip-rule="evenodd" fill="#051A2E">
        <path d="M15.363 5.694c-2.556.003-5.014 1.077-6.834 3-1.823 1.927-2.854 4.548-2.854 7.288a.842.842 0 0 1-.837.847.842.842 0 0 1-.838-.847c0-3.166 1.19-6.21 3.318-8.46C9.448 5.273 12.345 4 15.374 4h.02a13.27 13.27 0 0 1 6.39 1.838 13.926 13.926 0 0 1 3.288 2.688V5.471c0-.468.375-.848.838-.848.463 0 .838.38.838.848v5.553c0 .029 0 .058-.003.086a.85.85 0 0 1-.604.742.827.827 0 0 1-.244.033h-4.676a.842.842 0 0 1-.837-.847c0-.468.375-.847.837-.847h3.06a12.307 12.307 0 0 0-3.338-2.888 11.609 11.609 0 0 0-5.58-1.609zM27.163 15.17c.462 0 .837.38.837.848 0 3.181-1.266 6.23-3.516 8.476A11.998 11.998 0 0 1 16.007 28c-3.366 0-6.036-1.691-7.826-3.312-.461-.417-.868-.834-1.22-1.223v3.064a.842.842 0 0 1-.837.847.842.842 0 0 1-.838-.847V21.2a.858.858 0 0 1 .073-.652.841.841 0 0 1 .745-.432h5.062c.463 0 .838.379.838.847a.843.843 0 0 1-.838.847H7.755c.4.483.918 1.05 1.544 1.617 1.629 1.476 3.917 2.88 6.708 2.88 2.74 0 5.366-1.087 7.3-3.017a10.273 10.273 0 0 0 3.018-7.271c0-.468.375-.847.838-.847z"/>
    </g>
</svg>
