<svg width="32" height="32" viewBox="0 0 32 32" fill="none" xmlns="http://www.w3.org/2000/svg">
    <g clip-path="url(#w4gcjfgypa)" fill="#697682">
        <path d="M15.947 7.333c5.6 0 11.28 5.013 11.28 8.613 0 3.6-5.687 8.614-11.28 8.614-5.594 0-11.28-5.367-11.28-8.614 0-3.246 5.466-8.613 11.28-8.613zm0-2c-6.6 0-13.28 5.987-13.28 10.613 0 4.627 6.686 10.614 13.28 10.614 6.593 0 13.28-5.734 13.28-10.614 0-4.88-6.687-10.613-13.28-10.613z"/>
        <path d="M15.947 12.474c1.92 0 3.48 1.56 3.48 3.48s-1.56 3.48-3.48 3.48-3.48-1.56-3.48-3.48 1.56-3.48 3.48-3.48zm0-2a5.48 5.48 0 1 0 0 10.96 5.48 5.48 0 0 0 0-10.96z"/>
    </g>
    <defs>
        <clipPath id="w4gcjfgypa">
            <path fill="#fff" d="M0 0h32v32H0z"/>
        </clipPath>
    </defs>
</svg>
