<svg width="16" height="16" viewBox="0 0 16 16" fill="none" xmlns="http://www.w3.org/2000/svg">
    <g clip-path="url(#65ezwfd10a)" fill="#fff">
        <path d="M12.367 5.655a.696.696 0 0 0-.91-.386l-3.46 1.373-3.64-1.333a.7.7 0 0 0-.91.387.708.708 0 0 0 .396.916L7.74 8.045a.71.71 0 0 0 .523 0l3.72-1.476a.701.701 0 0 0 .387-.91l-.003-.004z"/>
        <path d="m14.254 4.06-5.99-2.42a.71.71 0 0 0-.527 0l-5.99 2.42a.696.696 0 0 0-.436.65v6.766a.7.7 0 0 0 .436.65l5.99 2.42a.712.712 0 0 0 .527 0l5.99-2.42a.696.696 0 0 0 .437-.65V4.71a.7.7 0 0 0-.437-.65zm-.963 6.943L8 13.14l-5.29-2.137v-5.82L8 3.047l5.29 2.136v5.824-.004z"/>
    </g>
    <defs>
        <clipPath id="65ezwfd10a">
            <path fill="#fff" d="M0 0h16v16H0z"/>
        </clipPath>
    </defs>
</svg>
