<svg width="24" height="24" viewBox="0 0 24 24" fill="none" xmlns="http://www.w3.org/2000/svg">
    <path d="M16 6c.55 0 1-.45 1-1V3c0-.55-.45-1-1-1H4c-.55 0-1 .45-1 1v17.995C3 21.55 3.45 22 4 22h12c.55 0 1-.45 1-1v-2c0-.55-.45-1-1-1s-1 .45-1 1v1H5V4h10v1c0 .55.45 1 1 1z" fill="#051A2E"/>
    <path d="M20.875 12.475c.015-.03.035-.06.05-.09.015-.035.02-.07.03-.105.01-.03.02-.055.025-.085A.861.861 0 0 0 21 12a.79.79 0 0 0-.02-.19c-.005-.035-.015-.06-.025-.09l-.03-.1c-.015-.035-.035-.065-.05-.095-.015-.025-.025-.05-.04-.075-.035-.055-.08-.105-.125-.155l-3-3a1.002 1.002 0 0 0-1.415 0c-.39.39-.39 1.025 0 1.415l1.295 1.295h-5.585c-.55 0-1 .45-1 1s.45 1 1 1h5.585L16.295 14.3A1.002 1.002 0 0 0 17 16.01c.255 0 .51-.1.705-.295l3-3s.005-.01.01-.01c.04-.045.08-.09.115-.14l.045-.08v-.01z" fill="#051A2E"/>
</svg>
