<svg width="24" height="24" viewBox="0 0 24 24" fill="none" xmlns="http://www.w3.org/2000/svg">
    <path d="M11.5 1C5.149 1 0 5.045 0 10.035c0 3.249 2.182 6.095 5.455 7.688-.24.893-.87 3.233-.997 3.734-.155.622.23.613.481.446.198-.131 3.152-2.126 4.426-2.988.692.102 1.405.156 2.135.156 6.351 0 11.5-4.046 11.5-9.036C23 5.045 17.851 1 11.5 1z" fill="#391B1B"/>
    <path d="M6.872 7.375H3.509a.57.57 0 0 0-.571.568.57.57 0 0 0 .571.568h1.094v4.004a.556.556 0 0 0 .557.555h.122a.559.559 0 0 0 .557-.555V8.511h1.033a.57.57 0 0 0 .572-.568.57.57 0 0 0-.572-.568zM14.954 12H13.39V7.913a.618.618 0 0 0-.62-.617.618.618 0 0 0-.62.617v4.407c0 .034.004.066.01.1a.517.517 0 0 0 .51.615h2.284a.517.517 0 1 0 0-1.033zM19.951 12.188 18.21 9.914l1.574-1.566a.54.54 0 0 0 0-.767.549.549 0 0 0-.772 0l-1.95 1.937V7.912a.618.618 0 0 0-.62-.617.619.619 0 0 0-.62.617v4.543c0 .34.277.617.62.617.343 0 .62-.276.62-.617v-1.402l.355-.351 1.648 2.15a.556.556 0 0 0 .777.109.55.55 0 0 0 .11-.773zM11.685 12.336l-1.676-4.557-.005-.005c-.107-.278-.417-.48-.785-.48-.41 0-.748.249-.815.574-.012.024-.023.048-.033.074l-1.647 4.394a.552.552 0 0 0 .34.704c.289.102.606-.05.708-.338l.285-.809h2.294l.285.81c.102.287.42.439.709.337a.552.552 0 0 0 .34-.704zM8.421 10.86l.771-2.186c.01 0 .016.003.025.003l.77 2.183H8.423z" fill="#FAE300"/>
</svg>
