<svg width="24" height="24" viewBox="0 0 24 24" fill="none" xmlns="http://www.w3.org/2000/svg">
    <path d="M5.188 18.426c.053 0 .107-.005.16-.013l4.506-.79a.262.262 0 0 0 .142-.076L21.35 6.194a.265.265 0 0 0 0-.378L16.9 1.361a.265.265 0 0 0-.19-.078.265.265 0 0 0-.19.078L5.163 12.715a.272.272 0 0 0-.075.142l-.79 4.506a.897.897 0 0 0 .251.798c.177.171.4.265.638.265zm1.805-4.671 9.715-9.713 1.964 1.964-9.715 9.712-2.382.42.418-2.383zm14.864 6.921H2.142a.856.856 0 0 0-.857.857v.964c0 .118.097.215.214.215h21a.215.215 0 0 0 .215-.215v-.964a.856.856 0 0 0-.857-.857z" fill="#051A2E"/>
</svg>
