<svg width="16" height="16" viewBox="0 0 16 16" fill="none" xmlns="http://www.w3.org/2000/svg">
    <g clip-path="url(#7z2nh4unka)">
        <g clip-path="url(#n5vdxsn71b)">
            <path d="M3.46 12.284a.717.717 0 0 0 .106-.009l3.004-.527a.175.175 0 0 0 .095-.05l7.57-7.57a.178.178 0 0 0 0-.251L11.265.907a.177.177 0 0 0-.126-.052.177.177 0 0 0-.127.052l-7.57 7.57a.181.181 0 0 0-.05.095l-.527 3.003a.599.599 0 0 0 .168.532.605.605 0 0 0 .425.177zM4.662 9.17l6.477-6.475 1.308 1.309-6.476 6.475-1.588.28.279-1.59zm9.909 4.614H1.429a.57.57 0 0 0-.572.571v.643c0 .079.065.143.143.143h14a.143.143 0 0 0 .143-.143v-.643a.57.57 0 0 0-.571-.571z" fill="#fff"/>
        </g>
    </g>
    <defs>
        <clipPath id="7z2nh4unka">
            <path fill="#fff" d="M0 0h16v16H0z"/>
        </clipPath>
        <clipPath id="n5vdxsn71b">
            <path fill="#fff" d="M0 0h16v16H0z"/>
        </clipPath>
    </defs>
</svg>
