<svg width="24" height="24" viewBox="0 0 24 24" fill="none" xmlns="http://www.w3.org/2000/svg">
    <path d="M18.55 8.485c-.16-.4-.545-.655-.975-.655a1.04 1.04 0 0 0-.39.075l-5.19 2.06-5.46-2a1.05 1.05 0 0 0-1.365.58c-.215.535.045 1.15.595 1.375l5.845 2.15a1.066 1.066 0 0 0 .785 0l5.58-2.215c.535-.215.795-.83.58-1.365l-.005-.005z" fill="#697682"/>
    <path d="m21.38 6.09-8.985-3.63a1.066 1.066 0 0 0-.79 0L2.62 6.09c-.4.16-.655.545-.655.975v10.15c0 .43.26.815.655.975l8.985 3.63a1.066 1.066 0 0 0 .79 0l8.985-3.63c.4-.16.655-.545.655-.975V7.065c0-.43-.26-.815-.655-.975zm-1.445 10.415L12 19.71l-7.935-3.205v-8.73L12 4.57l7.935 3.205v8.735-.005z" fill="#697682"/>
</svg>
