<svg width="16" height="16" viewBox="0 0 16 16" fill="none" xmlns="http://www.w3.org/2000/svg">
    <g clip-path="url(#7awfjyj3wa)">
        <path opacity=".1" d="M13.616 8.62a.382.382 0 1 0 .001-.764.382.382 0 0 0-.001.765z" fill="#051A2E"/>
        <path opacity=".2" d="M12.59 11.864a.479.479 0 1 0 .001-.958.479.479 0 0 0-.002.958z" fill="#051A2E"/>
        <path opacity=".3" d="M9.903 13.903a.575.575 0 1 0 0-1.148.575.575 0 1 0 0 1.148z" fill="#051A2E"/>
        <path opacity=".4" d="M6.578 14c.371 0 .673-.3.673-.67 0-.37-.302-.67-.673-.67-.372 0-.674.3-.674.67 0 .37.302.67.674.67z" fill="#051A2E"/>
        <path opacity=".5" d="M3.892 12.149a.765.765 0 0 0 .766-.763.765.765 0 0 0-.766-.764.765.765 0 0 0-.767.764c0 .421.343.763.767.763z" fill="#2563EB"/>
        <path opacity=".6" d="M2.863 9.1a.862.862 0 0 0 .864-.86.862.862 0 0 0-.864-.86.862.862 0 0 0-.863.86c0 .474.387.86.863.86z" fill="#2563EB"/>
        <path opacity=".7" d="M3.892 6.048c.53 0 .96-.427.96-.955a.958.958 0 0 0-.96-.956c-.53 0-.96.428-.96.956s.43.955.96.955z" fill="#2563EB"/>
        <path opacity=".8" d="M6.578 4.2c.584 0 1.057-.471 1.057-1.052 0-.581-.473-1.052-1.057-1.052-.583 0-1.057.47-1.057 1.052 0 .58.474 1.052 1.057 1.052z" fill="#2563EB"/>
        <path opacity=".9" d="M9.901 4.297a1.15 1.15 0 0 0 1.154-1.149A1.15 1.15 0 0 0 9.9 2a1.15 1.15 0 0 0-1.153 1.148 1.15 1.15 0 0 0 1.153 1.149z" fill="#2563EB"/>
        <path d="M12.588 6.333c.689 0 1.247-.555 1.247-1.241s-.558-1.241-1.247-1.241c-.688 0-1.246.555-1.246 1.24 0 .687.558 1.242 1.246 1.242z" fill="#2563EB"/>
    </g>
    <defs>
        <clipPath id="7awfjyj3wa">
            <path fill="#fff" d="M0 0h16v16H0z"/>
        </clipPath>
    </defs>
</svg>
