<svg width="24" height="24" viewBox="0 0 24 24" fill="none" xmlns="http://www.w3.org/2000/svg">
    <path d="M18.034 12.168c-.025-2.653 2.289-3.944 2.395-4.004-1.31-1.813-3.342-2.061-4.056-2.081-1.705-.17-3.36.969-4.229.969-.886 0-2.224-.953-3.667-.925-1.855.028-3.592 1.047-4.544 2.631-1.965 3.23-.5 7.975 1.383 10.585C6.258 20.622 7.36 22.05 8.8 22c1.41-.055 1.936-.853 3.636-.853 1.685 0 2.18.853 3.649.82 1.512-.022 2.464-1.284 3.373-2.573 1.089-1.466 1.526-2.909 1.543-2.983-.036-.011-2.937-1.062-2.966-4.242zM15.259 4.366c.758-.9 1.277-2.124 1.133-3.366-1.097.046-2.47.72-3.26 1.6-.698.776-1.323 2.047-1.161 3.242 1.232.087 2.497-.59 3.288-1.476z" fill="#fff"/>
</svg>
