<svg width="136" height="88" viewBox="0 0 136 88" fill="none" xmlns="http://www.w3.org/2000/svg">
    <path fill="#fff" fill-opacity=".2" d="M48 0h40v40H48z"/>
    <path d="M54.288 15.84h2.896l1.296-5.856c.192-.928.352-1.84.512-2.736h.064c.144.896.32 1.808.512 2.736l1.328 5.856h2.944L66.032 4h-2.256l-.928 5.776a728.915 728.915 0 0 0-.528 3.776h-.08c-.256-1.28-.496-2.56-.752-3.776L60.112 4h-2.016L56.72 9.776a225.192 225.192 0 0 0-.752 3.776h-.064c-.176-1.264-.368-2.528-.544-3.776L54.416 4H52l2.288 11.84zM76.134 24.5a1 1 0 0 1 1.732 0l4.33 7.5a1 1 0 0 1-.866 1.5h-8.66a1 1 0 0 1-.866-1.5l4.33-7.5z" fill="#fff"/>
    <path fill="#fff" fill-opacity=".2" d="M48 48h40v40H48z"/>
    <path d="M77.866 83.5a1 1 0 0 1-1.732 0l-4.33-7.5a1 1 0 0 1 .866-1.5h8.66a1 1 0 0 1 .866 1.5l-4.33 7.5zM59.32 64.288c2.736 0 4.352-1.648 4.352-3.584 0-1.712-.944-2.624-2.384-3.216l-1.552-.656c-1.008-.4-1.856-.704-1.856-1.552 0-.784.672-1.248 1.712-1.248.976 0 1.76.352 2.512.976l1.2-1.488c-.96-.976-2.336-1.52-3.712-1.52-2.4 0-4.096 1.488-4.096 3.424 0 1.728 1.2 2.688 2.4 3.184l1.584.672c1.056.448 1.776.72 1.776 1.6 0 .832-.656 1.36-1.888 1.36-1.04 0-2.16-.528-3.008-1.312L55 62.56a6.31 6.31 0 0 0 4.32 1.728z" fill="#fff"/>
    <path fill="#fff" fill-opacity=".2" d="M0 48h40v40H0z"/>
    <path d="M23.5 78.866a1 1 0 0 1 0-1.732l7.5-4.33a1 1 0 0 1 1.5.866v8.66a1 1 0 0 1-1.5.866l-7.5-4.33zM9.744 58.96l.352-1.296a85.28 85.28 0 0 0 1.008-3.872h.064c.352 1.28.672 2.64 1.04 3.872l.352 1.296H9.744zm4.16 4.88h2.48L12.576 52H9.792L6 63.84h2.4l.832-3.04h3.84l.832 3.04z" fill="#fff"/>
    <path fill="#fff" fill-opacity=".2" d="M96 48h40v40H96z"/>
    <path d="M130.5 77.134a1 1 0 0 1 0 1.732l-7.5 4.33a1 1 0 0 1-1.5-.866v-8.66a1 1 0 0 1 1.5-.866l7.5 4.33zM103 63.84h3.376c3.488 0 5.728-1.984 5.728-5.968 0-4-2.24-5.872-5.856-5.872H103v11.84zm2.368-1.904v-8.048h.736c2.208 0 3.584 1.088 3.584 3.984 0 2.88-1.376 4.064-3.584 4.064h-.736z" fill="#fff"/>
</svg>
