<svg width="38" height="57" viewBox="0 0 38 57" fill="none" xmlns="http://www.w3.org/2000/svg">
    <path opacity=".2" fill-rule="evenodd" clip-rule="evenodd" d="M14.25 0h3.8v6.77a3.802 3.802 0 0 0-2.85 3.68v7.6a3.8 3.8 0 1 0 7.6 0v-7.6a3.802 3.802 0 0 0-2.85-3.68V0h3.8C31.62 0 38 6.38 38 14.25v28.5C38 50.62 31.62 57 23.75 57h-9.5C6.38 57 0 50.62 0 42.75v-28.5C0 6.38 6.38 0 14.25 0zM19 8.55c1.05 0 1.9.85 1.9 1.9v7.6a1.9 1.9 0 0 1-3.8 0v-7.6c0-1.05.85-1.9 1.9-1.9z" fill="#fff"/>
    <path fill-rule="evenodd" clip-rule="evenodd" d="M19.95 6.77a3.802 3.802 0 0 1 2.85 3.68v7.6a3.802 3.802 0 0 1-2.85 3.68v.595H38V14.25C38 6.38 31.62 0 23.75 0h-3.8v6.77z" fill="url(#kbiixeafqa)"/>
    <defs>
        <linearGradient id="kbiixeafqa" x1="28.975" y1="0" x2="28.975" y2="22.325" gradientUnits="userSpaceOnUse">
            <stop stop-color="#fff"/>
            <stop offset=".37" stop-color="#fff" stop-opacity=".75"/>
            <stop offset=".708" stop-color="#fff" stop-opacity=".35"/>
            <stop offset="1" stop-color="#fff" stop-opacity="0"/>
        </linearGradient>
    </defs>
</svg>
