<svg width="80" height="40" viewBox="0 0 80 40" fill="none" xmlns="http://www.w3.org/2000/svg">
    <path fill="#fff" fill-opacity=".2" d="M0 0h80v40H0z"/>
    <path d="M31.424 26.992c1.536 0 2.8-.608 3.776-1.744l-1.248-1.472c-.64.688-1.44 1.168-2.448 1.168-1.872 0-3.088-1.552-3.088-4.128 0-2.544 1.344-4.08 3.136-4.08.896 0 1.584.416 2.176.992l1.248-1.504c-.768-.8-1.968-1.52-3.472-1.52-2.992 0-5.504 2.288-5.504 6.192 0 3.952 2.432 6.096 5.424 6.096zM39.57 26.992c.785 0 1.409-.176 1.889-.336l-.384-1.712c-.24.096-.592.192-.88.192-.8 0-1.216-.48-1.216-1.504v-3.968h2.208v-1.856h-2.208v-2.4H37.01l-.272 2.4-1.376.112v1.744h1.264v3.968c0 2.016.816 3.36 2.944 3.36zM43.01 26.768h2.335v-5.344c.512-1.296 1.36-1.76 2.064-1.76.368 0 .624.048.928.144l.416-2.032c-.272-.112-.56-.192-1.056-.192-.928 0-1.888.64-2.544 1.808h-.064l-.16-1.584h-1.92v8.96zM52.186 26.992c.544 0 .944-.096 1.216-.208l-.288-1.744c-.16.032-.224.032-.32.032-.224 0-.48-.176-.48-.704V14h-2.336v10.256c0 1.664.576 2.736 2.208 2.736z" fill="#fff"/>
</svg>
