<svg width="80" height="40" viewBox="0 0 80 40" fill="none" xmlns="http://www.w3.org/2000/svg">
    <path fill="#fff" fill-opacity=".2" d="M0 0h80v40H0z"/>
    <path d="M16 26.768h3.376c3.488 0 5.728-1.984 5.728-5.968 0-4-2.24-5.872-5.856-5.872H16v11.84zm2.368-1.904v-8.048h.736c2.208 0 3.584 1.088 3.584 3.984 0 2.88-1.376 4.064-3.584 4.064h-.736zM31.118 26.992c1.12 0 2.256-.384 3.136-.992l-.8-1.44c-.64.4-1.28.624-2.016.624-1.328 0-2.288-.768-2.48-2.24h5.52c.064-.208.112-.64.112-1.072 0-2.48-1.28-4.288-3.744-4.288-2.144 0-4.176 1.808-4.176 4.72 0 2.944 1.952 4.688 4.448 4.688zm-2.192-5.6c.176-1.312 1.008-1.984 1.952-1.984 1.152 0 1.696.768 1.696 1.984h-3.648zM38.735 26.992c.544 0 .944-.096 1.216-.208l-.288-1.744c-.16.032-.224.032-.32.032-.224 0-.48-.176-.48-.704V14h-2.336v10.256c0 1.664.576 2.736 2.208 2.736zM45.462 26.992c1.12 0 2.256-.384 3.136-.992l-.8-1.44c-.64.4-1.28.624-2.016.624-1.328 0-2.288-.768-2.48-2.24h5.52c.064-.208.112-.64.112-1.072 0-2.48-1.28-4.288-3.744-4.288-2.144 0-4.176 1.808-4.176 4.72 0 2.944 1.952 4.688 4.448 4.688zm-2.192-5.6c.176-1.312 1.008-1.984 1.952-1.984 1.152 0 1.696.768 1.696 1.984H43.27zM53.963 26.992c.784 0 1.408-.176 1.888-.336l-.384-1.712c-.24.096-.592.192-.88.192-.8 0-1.216-.48-1.216-1.504v-3.968h2.208v-1.856h-2.208v-2.4h-1.968l-.272 2.4-1.376.112v1.744h1.264v3.968c0 2.016.816 3.36 2.944 3.36zM60.993 26.992c1.12 0 2.256-.384 3.136-.992l-.8-1.44c-.64.4-1.28.624-2.016.624-1.328 0-2.288-.768-2.48-2.24h5.52c.064-.208.112-.64.112-1.072 0-2.48-1.28-4.288-3.744-4.288-2.144 0-4.176 1.808-4.176 4.72 0 2.944 1.952 4.688 4.448 4.688zm-2.192-5.6c.176-1.312 1.008-1.984 1.952-1.984 1.152 0 1.696.768 1.696 1.984H58.8z" fill="#fff"/>
</svg>
