<svg width="38" height="57" viewBox="0 0 38 57" fill="none" xmlns="http://www.w3.org/2000/svg">
    <path opacity=".2" fill-rule="evenodd" clip-rule="evenodd" d="M14.25 0h3.8v6.77a3.802 3.802 0 0 0-2.85 3.68v7.6a3.8 3.8 0 1 0 7.6 0v-7.6a3.802 3.802 0 0 0-2.85-3.68V0h3.8C31.62 0 38 6.38 38 14.25v28.5C38 50.62 31.62 57 23.75 57h-9.5C6.38 57 0 50.62 0 42.75v-28.5C0 6.38 6.38 0 14.25 0zM19 8.55c1.05 0 1.9.85 1.9 1.9v7.6a1.9 1.9 0 0 1-3.8 0v-7.6c0-1.05.85-1.9 1.9-1.9z" fill="#fff"/>
    <rect x="17.1" y="8.55" width="3.8" height="11.4" rx="1.9" fill="url(#sf7f7gw0wa)"/>
    <defs>
        <linearGradient id="sf7f7gw0wa" x1="19" y1="8.55" x2="19" y2="19.95" gradientUnits="userSpaceOnUse">
            <stop stop-color="#fff"/>
            <stop offset=".37" stop-color="#fff" stop-opacity=".75"/>
            <stop offset=".708" stop-color="#fff" stop-opacity=".35"/>
            <stop offset="1" stop-color="#fff" stop-opacity="0"/>
        </linearGradient>
    </defs>
</svg>
