<svg width="24" height="24" viewBox="0 0 24 24" fill="none" xmlns="http://www.w3.org/2000/svg">
    <path d="M3.429 8.255v8.649c0 1.689 1.174 2.382 2.609 1.546l2.044-1.19a1.905 1.905 0 0 1 1.644-.045l4.566 2.338a1.939 1.939 0 0 0 1.644-.045l3.766-2.204c.254-.17.465-.398.616-.667.152-.269.238-.57.254-.88V7.11c0-1.69-1.175-2.382-2.61-1.547L15.92 6.753a1.906 1.906 0 0 1-1.645.045l-4.566-2.33a1.939 1.939 0 0 0-1.643 0L4.298 6.674a1.948 1.948 0 0 0-.624.682 1.997 1.997 0 0 0-.245.9v0zM8.571 5.143v11.143M15.429 7.714v11.143" stroke="#fff" stroke-width="1.5" stroke-linecap="round" stroke-linejoin="round"/>
</svg>
